<svg xmlns="http://www.w3.org/2000/svg" viewBox="0 0 282 81.35" fill="#f0f4f8"><path d="M218.57,45.93v19.81h63.02v15.24h-79.11V30.7h79.11v15.24h-63.02Z" fill="#01a982"></path><path d="M154.58.53h-49.87v80.45h16.09v-20.45h33.53c21.18,0,33.35-12.06,33.35-29.83S175.51.53,154.58.53ZM153.53,45.11h-32.73V15.76h32.73c12.67,0,17.48,5.86,17.48,14.93s-4.81,14.41-17.48,14.41ZM218.57,23.23h-16.09V.53h79.11v15.24h-63.02v7.46ZM84.48.53v80.45h-16.09v-32.97H16.09v32.97H0V.53h16.09v32.06h52.3V.53h16.09Z"></path><path d="M333.89.52h10.98c11.78,0,17.59,6.38,17.59,16.42v.38c0,10.04-5.87,16.75-17.69,16.75h-10.88V.52ZM344.58,28.15c6.76,0,9.95-3.8,9.95-10.75v-.38c0-6.9-2.96-10.6-10.04-10.6h-3v21.72h3.1Z"></path><path d="M367.12.52h7.65v33.55h-7.65V.52Z"></path><path d="M379.08,23.55h7.27c.33,3,1.59,5.49,6.57,5.49,3.33,0,5.54-1.83,5.54-4.46s-1.41-3.61-6.33-4.36c-8.59-1.13-12.11-3.71-12.11-10.18,0-5.72,4.79-9.99,12.2-9.99s11.96,3.38,12.57,10.04h-6.99c-.47-3.05-2.25-4.46-5.58-4.46s-5.02,1.55-5.02,3.8c0,2.39,1.08,3.52,6.24,4.27,8.12,1.03,12.29,3.24,12.29,10.18,0,5.96-4.88,10.7-12.81,10.7-9.2,0-13.42-4.32-13.84-11.03Z"></path><path d="M408.36,17.5v-.38c0-10.18,7.08-17.13,16.66-17.13,8.07,0,14.08,3.89,14.87,12.2h-7.79c-.56-4.04-2.82-6.19-7.04-6.19-5.3,0-8.68,4.13-8.68,11.07v.38c0,6.94,3.19,11.03,8.73,11.03,4.18,0,7.08-2.16,7.69-6.47h7.46c-.84,8.3-6.8,12.58-15.06,12.58-10.98,0-16.84-6.8-16.84-17.08Z"></path><path d="M442.6,17.5v-.38c0-9.99,7.32-17.08,17.27-17.08s17.27,6.85,17.27,16.89v.38c0,10.04-6.85,17.27-17.31,17.27s-17.22-7.23-17.22-17.08ZM469.2,17.41v-.38c0-6.52-3.47-10.98-9.34-10.98s-9.34,4.22-9.34,11.03v.38c0,6.85,3.89,11.07,9.43,11.07s9.24-4.36,9.24-11.12Z"></path><path d="M477.3.52h8.02l7.98,25.76,8.02-25.76h7.13l-11.21,33.55h-8.73L477.3.52Z"></path><path d="M511.55.52h21.86v5.91h-14.31v7.84h11.45v5.58h-11.45v8.3h15.06v5.91h-22.62V.52Z"></path><path d="M538.36.52h12.01c7.93,0,12.95,3.24,12.95,10.18v.19c0,5.07-2.96,7.74-6.85,8.92l8.82,14.26h-8.12l-7.93-12.95h-3.33v12.95h-7.55V.52ZM550.18,15.95c3.8,0,5.72-1.6,5.72-4.83v-.19c0-3.38-2.06-4.65-5.72-4.65h-4.27v9.67h4.27Z"></path><path d="M333.89,47.43h2.63v31.39h16.28v2.16h-18.91v-33.55Z"></path><path d="M367.88,47.43h3.47l12.06,33.55h-2.63l-3.71-10.28h-15.11l-3.66,10.28h-2.49l12.06-33.55ZM362.72,68.59h13.61l-6.8-19-6.8,19Z"></path><path d="M385.15,71.36h2.58c.56,4.22,2.91,7.84,9.9,7.84,5.26,0,8.68-3.05,8.68-7.18,0-4.69-2.25-6.33-9.01-7.37-7.32-1.08-10.84-3.52-10.84-8.82s4.27-8.77,10.56-8.77,10.04,3.1,10.79,8.45h-2.39c-.8-4.18-3.42-6.29-8.4-6.29s-8.12,2.39-8.12,6.43c0,3.66,1.83,5.63,8.82,6.66,7.51,1.13,11.12,3.24,11.12,9.53,0,5.3-4.46,9.52-11.21,9.52-8.3,0-11.78-4.5-12.48-9.99Z"></path><path d="M423.43,47.43h2.58l11.21,30.97,10.89-30.97h2.44l-11.87,33.55h-3.1l-12.15-33.55Z"></path><path d="M454.79,47.43h19.29v2.16h-16.66v13.09h13.51v2.16h-13.51v13.98h17.5v2.16h-20.13v-33.55Z"></path><path d="M476.49,64.42v-.38c0-9.81,6.8-17.03,16-17.03,6.43,0,12.2,3,13.42,9.99h-2.58c-1.22-5.54-5.44-7.88-10.79-7.88-8.07,0-13.37,6.15-13.37,14.87v.38c0,8.92,4.79,14.83,13.42,14.83,7.83,0,11.78-4.83,11.87-12.2v-.19h-10.37v-2.21h12.9v1.92c0,9.67-5.77,14.83-14.4,14.83-10.09,0-16.09-7.08-16.09-16.94Z"></path><path d="M520.61,47.43h3.47l12.06,33.55h-2.63l-3.71-10.28h-15.11l-3.66,10.28h-2.49l12.06-33.55ZM515.45,68.59h13.61l-6.8-19-6.8,19Z"></path><path d="M537.88,71.36h2.58c.56,4.22,2.91,7.84,9.9,7.84,5.26,0,8.68-3.05,8.68-7.18,0-4.69-2.25-6.33-9.01-7.37-7.32-1.08-10.84-3.52-10.84-8.82s4.27-8.77,10.56-8.77,10.04,3.1,10.79,8.45h-2.39c-.8-4.18-3.42-6.29-8.4-6.29s-8.12,2.39-8.12,6.43c0,3.66,1.83,5.63,8.82,6.66,7.51,1.13,11.12,3.24,11.12,9.53,0,5.3-4.46,9.52-11.21,9.52-8.3,0-11.78-4.5-12.48-9.99Z"></path><path d="M656.76,65.35c1.55-3.71,5.44-5.72,9.38-5.72,6.99,0,10.98,4.69,10.98,10.74,0,6.52-4.41,10.98-11.26,10.98-8.49,0-11.68-6.19-11.68-14.12v-2.39c0-12.34,5.25-17.78,12.62-17.78,4.93,0,8.63,2.44,9.43,7.65h-2.49c-.7-3.66-3-5.44-7.09-5.44-5.77,0-9.81,4.27-9.9,14.73v1.36ZM674.45,70.47c0-5.21-3.05-8.73-8.63-8.73-4.79,0-8.77,3.19-8.77,8.31s3,9.2,8.82,9.2c5.21,0,8.59-3.57,8.59-8.77Z"></path><path d="M575.74,80.37l13.47-13.94c3.57-3.66,5.26-6.71,5.26-10.32,0-4.46-2.82-6.9-7.13-6.9s-7.37,2.49-8.02,7.98h-2.44c.52-6.33,4.6-10.13,10.46-10.13s9.76,3.33,9.76,9.15c0,4.08-2.3,7.84-6.38,11.87l-10.84,10.75h17.69v2.16h-21.82v-.61Z"></path><path d="M601.01,65.64v-2.82c0-9.81,4.79-15.77,12.76-15.77s12.86,6.05,12.86,15.62v2.86c0,9.76-4.6,15.81-12.71,15.81s-12.9-5.96-12.9-15.72ZM623.96,65.5v-2.82c0-8.21-3.75-13.47-10.18-13.47s-10.09,4.93-10.09,13.56v2.86c0,8.92,3.85,13.51,10.23,13.51s10.04-4.74,10.04-13.65Z"></path><path d="M628.99,80.37l13.47-13.94c3.57-3.66,5.26-6.71,5.26-10.32,0-4.46-2.82-6.9-7.13-6.9s-7.37,2.49-8.02,7.98h-2.44c.52-6.33,4.6-10.13,10.46-10.13s9.76,3.33,9.76,9.15c0,4.08-2.3,7.84-6.38,11.87l-10.84,10.75h17.69v2.16h-21.82v-.61Z"></path><title>HPE Discover</title></svg>